<?xml version="1.0" encoding="UTF-8" standalone="no"?>
<!DOCTYPE svg PUBLIC "-//W3C//DTD SVG 1.1//EN" "http://www.w3.org/Graphics/SVG/1.1/DTD/svg11.dtd">
<!-- Generated by Microsoft Visio, SVG Export Architecture.svg Page-1 -->
<svg xmlns="http://www.w3.org/2000/svg" xmlns:xlink="http://www.w3.org/1999/xlink" xmlns:ev="http://www.w3.org/2001/xml-events"
		xmlns:v="http://schemas.microsoft.com/visio/2003/SVGExtensions/" width="5.82415in" height="2.01042in"
		viewBox="0 0 419.339 144.75" xml:space="preserve" color-interpolation-filters="sRGB" class="st27">
	<v:documentProperties v:langID="1033" v:metric="true" v:viewMarkup="false">
		<v:userDefs>
			<v:ud v:nameU="msvNoAutoConnect" v:val="VT0(1):26"/>
		</v:userDefs>
	</v:documentProperties>

	<style type="text/css">
	<![CDATA[
		.st1 {fill:#efebe9;stroke:none;stroke-linecap:round;stroke-linejoin:round;stroke-width:0.75}
		.st2 {fill:#000000;font-family:Roboto;font-size:0.666664em}
		.st3 {fill:#f6f6f6;stroke:none;stroke-linecap:round;stroke-linejoin:round;stroke-width:0.75}
		.st4 {fill:#fbbc05;stroke:none;stroke-linecap:butt;stroke-width:0.75}
		.st5 {fill:#ea4335;stroke:none;stroke-linecap:butt;stroke-width:0.75}
		.st6 {fill:#4285f4;stroke:none;stroke-linecap:butt;stroke-width:0.75}
		.st7 {fill:#ffffff;stroke:none;stroke-linecap:butt;stroke-width:0.75}
		.st8 {fill:#757575;stroke:none;stroke-linecap:butt;stroke-width:0.75}
		.st9 {fill:#eceff1;stroke:#ffffff;stroke-linecap:round;stroke-linejoin:round;stroke-width:0.75}
		.st10 {fill:#000000;font-family:Roboto;font-size:0.666664em;font-weight:bold}
		.st11 {visibility:visible}
		.st12 {fill:#7f7f7f;fill-opacity:0.22;filter:url(#filter_2);stroke:#7f7f7f;stroke-opacity:0.22}
		.st13 {fill:#ffffff;stroke:#c7c8c8;stroke-width:0.25}
		.st14 {fill:#7f7f7f;font-size:1em}
		.st15 {fill:#000000;fill-opacity:0.067;stroke:none;stroke-linecap:butt;stroke-width:0.75}
		.st16 {fill:#ffffff}
		.st17 {stroke:none;stroke-linecap:butt;stroke-width:0.75}
		.st18 {fill:none;stroke:none;stroke-linecap:round;stroke-linejoin:round;stroke-width:0.75}
		.st19 {fill:#000000;font-family:Roboto;font-size:0.75em}
		.st20 {marker-end:url(#mrkr1-125);stroke:#0070c0;stroke-linecap:round;stroke-linejoin:round;stroke-width:1}
		.st21 {fill:#0070c0;fill-opacity:1;stroke:#0070c0;stroke-opacity:1;stroke-width:0.28409090909091}
		.st22 {fill:#e4edd3;stroke:#00b050;stroke-linecap:round;stroke-linejoin:round;stroke-width:0.75}
		.st23 {stroke:#0070c0;stroke-linecap:round;stroke-linejoin:round;stroke-width:1}
		.st24 {font-size:1em}
		.st25 {fill:#bfbfbf;stroke:#bfbfbf;stroke-linecap:round;stroke-linejoin:round;stroke-width:0.75}
		.st26 {fill:#bfbfbf;stroke:#ffffff;stroke-linecap:round;stroke-linejoin:round;stroke-width:0.75}
		.st27 {fill:none;fill-rule:evenodd;font-size:12px;overflow:visible;stroke-linecap:square;stroke-miterlimit:3}
	]]>
	</style>

	<defs id="Markers">
		<g id="lend1">
			<path d="M 1 -1 L 0 0 L 1 1 " style="stroke-linecap:round;stroke-linejoin:round;fill:none"/>
		</g>
		<marker id="mrkr1-125" class="st21" v:arrowType="1" v:arrowSize="2" orient="auto" markerUnits="strokeWidth"
				overflow="visible">
			<use xlink:href="#lend1" transform="scale(-3.52,-3.52) "/>
		</marker>
	</defs>
	<defs id="Filters">
		<filter id="filter_2">
			<feGaussianBlur stdDeviation="2"/>
		</filter>
	</defs>
	<g v:mID="0" v:index="1" v:groupContext="foregroundPage">
		<title>Page-1</title>
		<v:pageProperties v:drawingScale="0.0393701" v:pageScale="0.0393701" v:drawingUnits="24" v:shadowOffsetX="8.50394"
				v:shadowOffsetY="-8.50394"/>
		<g id="shape83-1" v:mID="83" v:groupContext="shape" transform="translate(18.375,-18.375)">
			<title>Sheet.83</title>
			<desc>Any network</desc>
			<v:textBlock v:margins="rect(4,4,4,4)" v:tabSpace="42.5197" v:verticalAlign="0"/>
			<v:textRect cx="70.3701" cy="90.75" width="140.75" height="108"/>
			<rect x="0" y="36.75" width="140.74" height="108" class="st1"/>
			<text x="4" y="47.95" class="st2" v:langID="1031"><v:paragraph/><v:tabList/>Any network</text>		</g>
		<g id="shape23-4" v:mID="23" v:groupContext="shape" transform="translate(173.483,-18.375)">
			<title>Sheet.23</title>
			<rect x="0" y="36.75" width="227.48" height="108" class="st3"/>
		</g>
		<g id="group24-6" transform="translate(181.369,-108.716)" v:mID="24" v:groupContext="group">
			<title>GCP Logo.598</title>
			<g id="group25-7" transform="translate(0,-0.131863)" v:mID="25" v:groupContext="group">
				<title>Page-1</title>
				<g id="group26-8" transform="translate(5.94524E-14,-0.00077572)" v:mID="26" v:groupContext="group">
					<title>Shape</title>
					<g id="shape27-9" v:mID="27" v:groupContext="shape">
						<title>Sheet.27</title>
						<path d="M7.71 142.66 L6.51 144.75 L3.36 144.75 C3.08 144.75 2.82 144.6 2.68 144.36 L0.14 139.92 C0 139.68
									 0 139.38 0.14 139.14 L1.11 137.45 L2.3 139.53 L4.1 142.66 L7.71 142.66 Z" class="st4"/>
					</g>
				</g>
				<g id="group28-11" transform="translate(6.50735,0)" v:mID="28" v:groupContext="group">
					<title>Sheet.28</title>
					<g id="shape29-12" v:mID="29" v:groupContext="shape">
						<title>Sheet.29</title>
						<path d="M5.17 139.92 L2.62 144.36 C2.48 144.6 2.22 144.75 1.94 144.75 L0 144.75 L1.2 142.66 L3 139.53 L1.2
									 136.4 L3.59 136.4 L5.17 139.14 C5.31 139.38 5.31 139.68 5.17 139.92 Z" class="st5"/>
					</g>
				</g>
				<g id="group30-14" transform="translate(1.10648,-5.22081)" v:mID="30" v:groupContext="group">
					<title>Sheet.30</title>
					<g id="shape31-15" v:mID="31" v:groupContext="shape">
						<title>Sheet.31</title>
						<path d="M9 141.62 L3 141.62 L1.2 144.75 L0 142.67 L1.58 139.92 C1.72 139.68 1.97 139.53 2.26 139.53 L7.35
									 139.53 C7.63 139.53 7.89 139.68 8.02 139.92 L9 141.62 Z" class="st6"/>
					</g>
				</g>
				<g id="group32-17" transform="translate(4.34045,-3.65453)" v:mID="32" v:groupContext="group">
					<title>Oval</title>
					<g id="shape33-18" v:mID="33" v:groupContext="shape">
						<title>Sheet.33</title>
						<ellipse cx="1.56628" cy="143.184" rx="1.56628" ry="1.56628" class="st7"/>
					</g>
				</g>
			</g>
			<g id="group34-20" transform="translate(15.1408,-8.52651E-14)" v:mID="34" v:groupContext="group">
				<title>GCP logo.66</title>
				<g id="group35-21" transform="translate(29.4111,-2.00997)" v:mID="35" v:groupContext="group">
					<title>Fill-3</title>
					<g id="shape36-22" v:mID="36" v:groupContext="shape">
						<title>Sheet.36</title>
						<path d="M0 141.58 C0 139.77 1.37 138.41 3.15 138.41 C4.07 138.41 4.84 138.77 5.39 139.4 L4.84 139.92 C4.42
									 139.4 3.85 139.15 3.15 139.15 C1.87 139.15 0.8 140.09 0.8 141.58 C0.8 143.07 1.87 144 3.15 144
									 C3.92 144 4.56 143.65 5.02 143.12 L5.56 143.66 C5.03 144.3 4.17 144.75 3.15 144.75 C1.37 144.75
									 0 143.38 0 141.58 Z" class="st8"/>
					</g>
				</g>
				<g id="group37-24" transform="translate(35.5849,-2.1457)" v:mID="37" v:groupContext="group">
					<title>Fill-5</title>
					<g id="shape38-25" v:mID="38" v:groupContext="shape">
						<title>Sheet.38</title>
						<rect x="0" y="138.678" width="0.780342" height="6.07247" class="st8"/>
					</g>
				</g>
				<g id="group39-27" transform="translate(36.9501,-2.01014)" v:mID="39" v:groupContext="group">
					<title>Fill-7</title>
					<g id="shape40-28" v:mID="40" v:groupContext="shape">
						<title>Sheet.40</title>
						<path d="M3.49 142.54 C3.49 141.59 2.83 141.04 2.14 141.04 C1.44 141.04 0.78 141.59 0.78 142.54 C0.78 143.49
									 1.44 144.04 2.14 144.04 C2.83 144.04 3.49 143.49 3.49 142.54 ZM4.27 142.54 C4.27 143.8 3.38
									 144.75 2.14 144.75 C0.89 144.75 0 143.8 0 142.54 C0 141.27 0.89 140.32 2.14 140.32 C3.38 140.32
									 4.27 141.27 4.27 142.54 Z" class="st8"/>
					</g>
				</g>
				<g id="group41-30" transform="translate(41.818,-2.01)" v:mID="41" v:groupContext="group">
					<title>Fill-8</title>
					<g id="shape42-31" v:mID="42" v:groupContext="shape">
						<title>Sheet.42</title>
						<path d="M2.93 144.61 L2.93 144.04 L2.9 144.04 C2.67 144.42 2.15 144.75 1.59 144.75 C0.52 144.75 0 144.03
									 0 143 L0 140.46 L0.78 140.46 L0.78 142.88 C0.78 143.74 1.21 144.04 1.81 144.04 C2.49 144.04
									 2.9 143.38 2.9 142.75 L2.9 140.46 L3.68 140.46 L3.68 144.61 L2.93 144.61 Z" class="st8"/>
					</g>
				</g>
				<g id="group43-33" transform="translate(46.1261,-2.01014)" v:mID="43" v:groupContext="group">
					<title>Fill-9</title>
					<g id="shape44-34" v:mID="44" v:groupContext="shape">
						<title>Sheet.44</title>
						<path d="M3.43 142.54 C3.43 141.59 2.8 141.04 2.1 141.04 C1.41 141.04 0.78 141.6 0.78 142.54 C0.78 143.47
									 1.41 144.04 2.1 144.04 C2.8 144.04 3.43 143.49 3.43 142.54 ZM0 142.54 C0 141.26 0.92 140.32
									 1.98 140.32 C2.64 140.32 3.16 140.65 3.39 141.04 L3.43 141.04 L3.39 140.46 L3.39 138.54 L4.17
									 138.54 L4.17 144.61 L3.43 144.61 L3.43 144.04 L3.39 144.04 C3.16 144.42 2.64 144.75 1.98 144.75
									 C0.92 144.75 0 143.81 0 142.54 Z" class="st8"/>
					</g>
				</g>
				<g id="group45-36" transform="translate(52.4271,-2.1458)" v:mID="45" v:groupContext="group">
					<title>Fill-10</title>
					<g id="shape46-37" v:mID="46" v:groupContext="shape">
						<title>Sheet.46</title>
						<path d="M2.09 141.54 C2.78 141.54 3.17 140.97 3.17 140.48 C3.17 140 2.78 139.42 2.09 139.42 L0.78 139.42
									 L0.78 141.54 L2.09 141.54 ZM0 144.75 L0 138.68 L2.07 138.68 C3.08 138.68 3.97 139.42 3.97 140.48
									 C3.97 141.54 3.08 142.29 2.07 142.29 L0.78 142.29 L0.78 144.75 L0 144.75 Z" class="st8"/>
					</g>
				</g>
				<g id="group47-39" transform="translate(56.9471,-2.1457)" v:mID="47" v:groupContext="group">
					<title>Fill-11</title>
					<g id="shape48-40" v:mID="48" v:groupContext="shape">
						<title>Sheet.48</title>
						<rect x="0" y="138.678" width="0.780342" height="6.07247" class="st8"/>
					</g>
				</g>
				<g id="group49-42" transform="translate(58.3972,-2.00997)" v:mID="49" v:groupContext="group">
					<title>Fill-12</title>
					<g id="shape50-43" v:mID="50" v:groupContext="shape">
						<title>Sheet.50</title>
						<path d="M2.95 142.82 C2.95 142.82 2.62 142.55 1.96 142.55 C1.14 142.55 0.81 142.99 0.81 143.38 C0.81 143.82
									 1.27 144.04 1.68 144.04 C2.3 144.04 2.95 143.5 2.95 142.82 ZM0 143.36 C0 142.42 0.85 141.91
									 1.82 141.91 C2.38 141.91 2.79 142.07 2.95 142.16 L2.95 142.04 C2.95 141.42 2.45 141.04 1.87
									 141.04 C1.43 141.04 1.02 141.25 0.87 141.64 L0.16 141.33 C0.31 140.95 0.81 140.32 1.85 140.32
									 C2.87 140.32 3.7 140.93 3.7 142.1 L3.7 144.61 L2.95 144.61 L2.95 144.04 L2.92 144.04 C2.69 144.38
									 2.26 144.75 1.55 144.75 C0.7 144.75 0 144.22 0 143.36 Z" class="st8"/>
					</g>
				</g>
				<g id="group51-45" transform="translate(62.4935,-2.07801)" v:mID="51" v:groupContext="group">
					<title>Fill-13</title>
					<g id="shape52-46" v:mID="52" v:groupContext="shape">
						<title>Sheet.52</title>
						<path d="M0.73 143.42 L0.73 141.24 L0 141.24 L0 140.53 L0.73 140.53 L0.73 139.25 L1.51 139.25 L1.51 140.53
									 L2.53 140.53 L2.53 141.24 L1.51 141.24 L1.51 143.36 C1.51 143.83 1.7 144.04 2.07 144.04 C2.21
									 144.04 2.32 144.02 2.43 143.97 L2.7 144.64 C2.52 144.72 2.33 144.75 2.07 144.75 C1.2 144.75
									 0.73 144.27 0.73 143.42 Z" class="st8"/>
					</g>
				</g>
				<g id="group53-48" transform="translate(65.4106,-2.14594)" v:mID="53" v:groupContext="group">
					<title>Fill-14</title>
					<g id="shape54-49" v:mID="54" v:groupContext="shape">
						<title>Sheet.54</title>
						<path d="M2.88 138.75 L2.61 139.42 C2.51 139.37 2.4 139.36 2.26 139.36 C1.87 139.36 1.56 139.59 1.56 140.07
									 L1.56 140.59 L2.65 140.59 L2.65 141.31 L1.56 141.31 L1.56 144.75 L0.78 144.75 L0.78 141.31 L0
									 141.31 L0 140.59 L0.78 140.59 L0.78 140.04 C0.78 139.2 1.38 138.64 2.26 138.64 C2.52 138.64
									 2.71 138.68 2.88 138.75 Z" class="st8"/>
					</g>
				</g>
				<g id="group55-51" transform="translate(68.2684,-2.01014)" v:mID="55" v:groupContext="group">
					<title>Fill-15</title>
					<g id="shape56-52" v:mID="56" v:groupContext="shape">
						<title>Sheet.56</title>
						<path d="M3.49 142.54 C3.49 141.59 2.83 141.04 2.14 141.04 C1.44 141.04 0.78 141.59 0.78 142.54 C0.78 143.49
									 1.44 144.04 2.14 144.04 C2.83 144.04 3.49 143.49 3.49 142.54 ZM4.27 142.54 C4.27 143.8 3.38
									 144.75 2.14 144.75 C0.89 144.75 0 143.8 0 142.54 C0 141.27 0.89 140.32 2.14 140.32 C3.38 140.32
									 4.27 141.27 4.27 142.54 Z" class="st8"/>
					</g>
				</g>
				<g id="group57-54" transform="translate(73.1703,-2.1458)" v:mID="57" v:groupContext="group">
					<title>Fill-16</title>
					<g id="shape58-55" v:mID="58" v:groupContext="shape">
						<title>Sheet.58</title>
						<path d="M0 144.75 L0 140.59 L0.75 140.59 L0.75 141.27 L0.78 141.27 C0.95 140.8 1.55 140.49 1.98 140.49 C2.24
									 140.49 2.41 140.53 2.57 140.59 L2.27 141.32 C2.16 141.28 2.03 141.26 1.86 141.26 C1.32 141.26
									 0.78 141.71 0.78 142.48 L0.78 144.75 L0 144.75 Z" class="st8"/>
					</g>
				</g>
				<g id="group59-57" transform="translate(76.164,-2.14577)" v:mID="59" v:groupContext="group">
					<title>Fill-17</title>
					<g id="shape60-58" v:mID="60" v:groupContext="shape">
						<title>Sheet.60</title>
						<path d="M0 140.59 L0.75 140.59 L0.75 141.17 L0.78 141.17 C1.02 140.77 1.57 140.46 2.06 140.46 C2.73 140.46
									 3.16 140.76 3.38 141.26 C3.67 140.79 4.18 140.46 4.83 140.46 C5.84 140.46 6.31 141.18 6.31 142.21
									 L6.31 144.75 L5.53 144.75 L5.53 142.32 C5.53 141.46 5.2 141.17 4.61 141.17 C3.97 141.17 3.54
									 141.82 3.54 142.45 L3.54 144.75 L2.76 144.75 L2.76 142.32 C2.76 141.46 2.43 141.17 1.84 141.17
									 C1.2 141.17 0.78 141.82 0.78 142.45 L0.78 144.75 L0 144.75 L0 140.59 Z" class="st8"/>
					</g>
				</g>
				<g id="group61-60" transform="translate(0,-2.01028)" v:mID="61" v:groupContext="group">
					<title>Fill-18</title>
					<g id="shape62-61" v:mID="62" v:groupContext="shape">
						<title>Sheet.62</title>
						<path d="M0 141.27 C0 139.36 1.61 137.8 3.53 137.8 C4.59 137.8 5.34 138.21 5.91 138.75 L5.24 139.42 C4.83
									 139.04 4.28 138.75 3.53 138.75 C2.13 138.75 1.03 139.87 1.03 141.27 C1.03 142.67 2.13 143.8
									 3.53 143.8 C4.44 143.8 4.95 143.44 5.28 143.1 C5.56 142.83 5.73 142.44 5.8 141.91 L3.53 141.91
									 L3.53 140.96 L6.73 140.96 C6.76 141.13 6.78 141.33 6.78 141.55 C6.78 142.27 6.58 143.15 5.95
									 143.77 C5.34 144.41 4.56 144.75 3.53 144.75 C1.61 144.75 0 143.19 0 141.27 Z" class="st8"/>
					</g>
				</g>
				<g id="group63-63" transform="translate(7.1127,-2.01014)" v:mID="63" v:groupContext="group">
					<title>Fill-19</title>
					<g id="shape64-64" v:mID="64" v:groupContext="shape">
						<title>Sheet.64</title>
						<path d="M2.25 143.87 C1.57 143.87 0.98 143.31 0.98 142.51 C0.98 141.71 1.57 141.15 2.25 141.15 C2.93 141.15
									 3.51 141.71 3.51 142.51 C3.51 143.31 2.93 143.87 2.25 143.87 ZM2.25 140.27 C1.01 140.27 0 141.21
									 0 142.51 C0 143.8 1.01 144.75 2.25 144.75 C3.49 144.75 4.49 143.8 4.49 142.51 C4.49 141.21 3.49
									 140.27 2.25 140.27 Z" class="st8"/>
					</g>
				</g>
				<g id="group65-66" transform="translate(12.0155,-2.01014)" v:mID="65" v:groupContext="group">
					<title>Fill-20</title>
					<g id="shape66-67" v:mID="66" v:groupContext="shape">
						<title>Sheet.66</title>
						<path d="M2.25 143.87 C1.57 143.87 0.98 143.31 0.98 142.51 C0.98 141.71 1.57 141.15 2.25 141.15 C2.93 141.15
									 3.51 141.71 3.51 142.51 C3.51 143.31 2.93 143.87 2.25 143.87 ZM2.25 140.27 C1.01 140.27 0 141.21
									 0 142.51 C0 143.8 1.01 144.75 2.25 144.75 C3.49 144.75 4.5 143.8 4.5 142.51 C4.5 141.21 3.49
									 140.27 2.25 140.27 Z" class="st8"/>
					</g>
				</g>
				<g id="group67-69" transform="translate(16.9227,2.84217E-14)" v:mID="67" v:groupContext="group">
					<title>Fill-21</title>
					<g id="shape68-70" v:mID="68" v:groupContext="shape">
						<title>Sheet.68</title>
						<path d="M2.23 141.86 C1.55 141.86 0.98 141.29 0.98 140.51 C0.98 139.72 1.55 139.14 2.23 139.14 C2.9 139.14
									 3.43 139.72 3.43 140.51 C3.43 141.29 2.9 141.86 2.23 141.86 ZM3.36 138.4 L3.36 138.76 L3.32
									 138.76 C3.1 138.5 2.68 138.26 2.15 138.26 C1.03 138.26 0 139.25 0 140.51 C0 141.76 1.03 142.74
									 2.15 142.74 C2.68 142.74 3.1 142.5 3.32 142.23 L3.36 142.23 L3.36 142.55 C3.36 143.41 2.9 143.87
									 2.16 143.87 C1.56 143.87 1.19 143.44 1.03 143.07 L0.18 143.43 C0.42 144.02 1.08 144.75 2.16
									 144.75 C3.32 144.75 4.29 144.07 4.29 142.42 L4.29 138.4 L3.36 138.4 Z" class="st8"/>
					</g>
				</g>
				<g id="group69-72" transform="translate(21.8927,-2.1457)" v:mID="69" v:groupContext="group">
					<title>Fill-22</title>
					<g id="shape70-73" v:mID="70" v:groupContext="shape">
						<title>Sheet.70</title>
						<rect x="0" y="138.169" width="0.9837" height="6.58121" class="st8"/>
					</g>
				</g>
				<g id="group71-75" transform="translate(23.3513,-2.01014)" v:mID="71" v:groupContext="group">
					<title>Fill-23</title>
					<g id="shape72-76" v:mID="72" v:groupContext="shape">
						<title>Sheet.72</title>
						<path d="M2.15 141.14 C2.54 141.14 2.87 141.33 2.98 141.61 L0.98 142.44 C0.95 141.58 1.65 141.14 2.15 141.14
									 ZM2.22 143.87 C1.72 143.87 1.37 143.64 1.14 143.19 L4.13 141.95 L4.03 141.7 C3.84 141.2 3.27
									 140.27 2.11 140.27 C0.96 140.27 0 141.18 0 142.51 C0 143.77 0.95 144.75 2.22 144.75 C3.25 144.75
									 3.84 144.12 4.09 143.76 L3.32 143.25 C3.07 143.62 2.72 143.87 2.22 143.87 Z" class="st8"/>
					</g>
				</g>
			</g>
		</g>
		<g id="shape22-78" v:mID="22" v:groupContext="shape" transform="translate(256.397,-29.8496)">
			<title>Sheet.22</title>
			<desc>VPC</desc>
			<v:textBlock v:margins="rect(4,4,4,4)" v:tabSpace="42.5197" v:verticalAlign="0"/>
			<v:textRect cx="66.3661" cy="110.661" width="132.74" height="68.179"/>
			<rect x="0" y="76.571" width="132.732" height="68.179" class="st9"/>
			<text x="4" y="87.77" class="st10" v:langID="1031"><v:paragraph/><v:tabList/>VPC</text>		</g>
		<g id="group73-81" transform="translate(279.074,-45.2064)" v:mID="73" v:groupContext="group">
			<title>Instance.73</title>
			<g id="shape74-82" v:mID="74" v:groupContext="shape">
				<title>Sheet.74</title>
				<desc>Windows Server GCE Instance</desc>
				<v:textBlock v:margins="rect(4,4,4,4)" v:tabSpace="42.5197" v:verticalAlign="0"/>
				<v:textRect cx="46.063" cy="131.095" width="92.13" height="27.3103"/>
				<g id="shadow74-83" v:groupContext="shadow" v:shadowOffsetX="0.172555" v:shadowOffsetY="-0.985" v:shadowType="1"
						transform="matrix(1,0,0,1,0.172555,0.985)" class="st11">
					<rect x="0" y="117.44" width="92.126" height="27.3103" class="st12"/>
				</g>
				<rect x="0" y="117.44" width="92.126" height="27.3103" class="st13"/>
				<text x="29.51" y="128.64" class="st2" v:langID="1031"><v:paragraph v:indentLeft="25.51"/><v:tabList/>Windows Server<v:newlineChar/><tspan
							x="29.51" dy="1.2em" class="st14">GCE Instance</tspan></text>			</g>
			<g id="group75-89" transform="translate(5.66929,-4.82376)" v:mID="75" v:groupContext="group">
				<title>Compute Engine</title>
				<g id="shape76-90" v:mID="76" v:groupContext="shape">
					<title>Sheet.76</title>
					<path d="M19.42 135.01 L15.38 127.99 A1.77503 1.77503 -180 0 0 13.87 127.09 L5.79 127.09 A1.7735 1.7735 -180
								 0 0 4.27 127.99 L0.23 134.99 A1.76275 1.76275 -180 0 0 0.23 136.75 L4.27 143.81 A1.80728 1.80728
								 -180 0 0 5.79 144.75 L13.86 144.75 A1.80114 1.80114 -180 0 0 15.38 143.82 L19.42 136.8 A1.80114
								 1.80114 -180 0 0 19.42 135.01 Z" class="st6"/>
				</g>
				<g id="shape77-92" v:mID="77" v:groupContext="shape" transform="translate(6.06314,-0.00460649)">
					<title>Sheet.77</title>
					<path d="M12.2 138.81 L5.55 132.16 L5.07 133.2 L4.04 132.16 L3.56 133.19 L2.54 132.16 L2.28 133.4 L1.37 133.56
								 L1.18 134.37 L0 134.65 L1.06 135.71 L0.01 136.17 L1.06 137.21 L0 137.67 L7.08 144.75 L7.8 144.75
								 A1.80114 1.80114 -180 0 0 9.32 143.82 L12.2 138.81 Z" class="st15"/>
				</g>
				<g id="shape78-94" v:mID="78" v:groupContext="shape" transform="translate(8.78404,-7.76807)">
					<title>Sheet.78</title>
					<path d="M1.94 142.62 L0.19 142.62 a0.18733 0.18733 -180 0 0 -0.185795 0.185795 L0 144.56 a0.18733 0.18733 -180
								 0 0 0.185795 0.18733 L1.94 144.75 a0.18733 0.18733 -180 0 0 0.179653 -0.18733 L2.12 142.81 a0.18733
								 0.18733 -180 0 0 -0.185795 -0.185795 L1.94 142.62 Z" class="st16"/>
					<path d="M1.94 142.62 L0.19 142.62 a0.18733 0.18733 -180 0 0 -0.185795 0.185795 L0 144.56 a0.18733 0.18733 -180
								 0 0 0.185795 0.18733 L1.94 144.75 a0.18733 0.18733 -180 0 0 0.179653 -0.18733 L2.12 142.81 a0.18733
								 0.18733 -180 0 0 -0.185795 -0.185795" class="st17"/>
				</g>
				<g id="shape79-97" v:mID="79" v:groupContext="shape" transform="translate(6.02936,-5.01493)">
					<title>Sheet.79</title>
					<path d="M7.47 139.73 a0.167369 0.167369 -180 0 0 0.17044 -0.167369 L7.64 139.29 a0.167369 0.167369 -180 0 0
								 -0.167369 -0.167369 L6.61 139.12 L6.61 138.32 a0.18733 0.18733 -180 0 0 -0.185795 -0.185795 L5.63
								 138.14 L5.63 137.28 a0.167369 0.167369 -180 0 0 -0.167369 -0.167369 L5.19 137.12 a0.167369 0.167369
								 -180 0 0 -0.161227 0.167369 L5.03 138.14 L4.12 138.14 L4.12 137.28 a0.167369 0.167369 -180 0 0 -0.168905
								 -0.167369 L3.68 137.12 a0.167369 0.167369 -180 0 0 -0.167369 0.167369 L3.51 138.14 L2.61 138.14
								 L2.61 137.28 a0.167369 0.167369 -180 0 0 -0.167369 -0.167369 L2.17 137.12 a0.167369 0.167369 -180
								 0 0 -0.167369 0.167369 L2.01 138.14 L1.21 138.14 a0.18733 0.18733 -180 0 0 -0.18733 0.181189 L1.02
								 139.12 L0.17 139.12 a0.167369 0.167369 -180 0 0 -0.167369 0.167369 L0 139.56 a0.167369 0.167369
								 -180 0 0 0.167369 0.167369 L1.02 139.73 L1.02 140.62 L0.17 140.62 a0.167369 0.167369 -180 0 0 -0.167369
								 0.167369 L0 141.07 a0.167369 0.167369 -180 0 0 0.167369 0.168905 L1.02 141.24 L1.02 142.14 L0.17
								 142.14 a0.167369 0.167369 -180 0 0 -0.167369 0.167369 L0 142.58 a0.167369 0.167369 -180 0 0 0.167369
								 0.167369 L1.02 142.75 L1.02 143.54 a0.18733 0.18733 -180 0 0 0.185795 0.185795 L2.01 143.73 L2.01
								 144.58 a0.167369 0.167369 -180 0 0 0.167369 0.167369 L2.45 144.75 a0.167369 0.167369 -180 0 0 0.167369
								 -0.167369 L2.61 143.73 L3.51 143.73 L3.51 144.58 a0.167369 0.167369 -180 0 0 0.167369 0.167369 L3.95
								 144.75 a0.167369 0.167369 -180 0 0 0.167369 -0.167369 L4.12 143.73 L5.03 143.73 L5.03 144.58 a0.167369
								 0.167369 -180 0 0 0.167369 0.167369 L5.47 144.75 a0.167369 0.167369 -180 0 0 0.167369 -0.167369
								 L5.63 143.73 L6.43 143.73 a0.18733 0.18733 -180 0 0 0.179653 -0.185795 L6.61 142.74 L7.47 142.74
								 a0.167369 0.167369 -180 0 0 0.17044 -0.167369 L7.64 142.3 a0.167369 0.167369 -180 0 0 -0.167369
								 -0.167369 L6.61 142.14 L6.61 141.24 L7.47 141.24 a0.167369 0.167369 -180 0 0 0.17044 -0.168905 L7.64
								 140.8 a0.167369 0.167369 -180 0 0 -0.17044 -0.173511 L6.61 140.62 L6.61 139.73 L7.47 139.73 ZM5.98
								 143.11 L1.65 143.11 L1.65 138.77 L5.98 138.77 L5.98 143.11 Z" class="st7"/>
				</g>
			</g>
		</g>
		<g id="group1-99" transform="translate(276.239,-49.4584)" v:mID="1" v:groupContext="group">
			<title>Instance</title>
			<g id="shape2-100" v:mID="2" v:groupContext="shape">
				<title>Sheet.2</title>
				<desc>Windows Server GCE Instance</desc>
				<v:textBlock v:margins="rect(4,4,4,4)" v:tabSpace="42.5197" v:verticalAlign="0"/>
				<v:textRect cx="46.063" cy="131.095" width="92.13" height="27.3103"/>
				<g id="shadow2-101" v:groupContext="shadow" v:shadowOffsetX="0.172555" v:shadowOffsetY="-0.985" v:shadowType="1"
						transform="matrix(1,0,0,1,0.172555,0.985)" class="st11">
					<rect x="0" y="117.44" width="92.126" height="27.3103" class="st12"/>
				</g>
				<rect x="0" y="117.44" width="92.126" height="27.3103" class="st13"/>
				<text x="29.51" y="128.64" class="st2" v:langID="1031"><v:paragraph v:indentLeft="25.51"/><v:tabList/>Windows Server<v:newlineChar/><tspan
							x="29.51" dy="1.2em" class="st14">GCE Instance</tspan></text>			</g>
			<g id="group3-107" transform="translate(5.66929,-4.82376)" v:mID="3" v:groupContext="group">
				<title>Compute Engine</title>
				<g id="shape4-108" v:mID="4" v:groupContext="shape">
					<title>Sheet.4</title>
					<path d="M19.42 135.01 L15.38 127.99 A1.77503 1.77503 -180 0 0 13.87 127.09 L5.79 127.09 A1.7735 1.7735 -180
								 0 0 4.27 127.99 L0.23 134.99 A1.76275 1.76275 -180 0 0 0.23 136.75 L4.27 143.81 A1.80728 1.80728
								 -180 0 0 5.79 144.75 L13.86 144.75 A1.80114 1.80114 -180 0 0 15.38 143.82 L19.42 136.8 A1.80114
								 1.80114 -180 0 0 19.42 135.01 Z" class="st6"/>
				</g>
				<g id="shape5-110" v:mID="5" v:groupContext="shape" transform="translate(6.06314,-0.00460649)">
					<title>Sheet.5</title>
					<path d="M12.2 138.81 L5.55 132.16 L5.07 133.2 L4.04 132.16 L3.56 133.19 L2.54 132.16 L2.28 133.4 L1.37 133.56
								 L1.18 134.37 L0 134.65 L1.06 135.71 L0.01 136.17 L1.06 137.21 L0 137.67 L7.08 144.75 L7.8 144.75
								 A1.80114 1.80114 -180 0 0 9.32 143.82 L12.2 138.81 Z" class="st15"/>
				</g>
				<g id="shape6-112" v:mID="6" v:groupContext="shape" transform="translate(8.78404,-7.76807)">
					<title>Sheet.6</title>
					<path d="M1.94 142.62 L0.19 142.62 a0.18733 0.18733 -180 0 0 -0.185795 0.185795 L0 144.56 a0.18733 0.18733 -180
								 0 0 0.185795 0.18733 L1.94 144.75 a0.18733 0.18733 -180 0 0 0.179653 -0.18733 L2.12 142.81 a0.18733
								 0.18733 -180 0 0 -0.185795 -0.185795 L1.94 142.62 Z" class="st16"/>
					<path d="M1.94 142.62 L0.19 142.62 a0.18733 0.18733 -180 0 0 -0.185795 0.185795 L0 144.56 a0.18733 0.18733 -180
								 0 0 0.185795 0.18733 L1.94 144.75 a0.18733 0.18733 -180 0 0 0.179653 -0.18733 L2.12 142.81 a0.18733
								 0.18733 -180 0 0 -0.185795 -0.185795" class="st17"/>
				</g>
				<g id="shape7-115" v:mID="7" v:groupContext="shape" transform="translate(6.02936,-5.01493)">
					<title>Sheet.7</title>
					<path d="M7.47 139.73 a0.167369 0.167369 -180 0 0 0.17044 -0.167369 L7.64 139.29 a0.167369 0.167369 -180 0 0
								 -0.167369 -0.167369 L6.61 139.12 L6.61 138.32 a0.18733 0.18733 -180 0 0 -0.185795 -0.185795 L5.63
								 138.14 L5.63 137.28 a0.167369 0.167369 -180 0 0 -0.167369 -0.167369 L5.19 137.12 a0.167369 0.167369
								 -180 0 0 -0.161227 0.167369 L5.03 138.14 L4.12 138.14 L4.12 137.28 a0.167369 0.167369 -180 0 0 -0.168905
								 -0.167369 L3.68 137.12 a0.167369 0.167369 -180 0 0 -0.167369 0.167369 L3.51 138.14 L2.61 138.14
								 L2.61 137.28 a0.167369 0.167369 -180 0 0 -0.167369 -0.167369 L2.17 137.12 a0.167369 0.167369 -180
								 0 0 -0.167369 0.167369 L2.01 138.14 L1.21 138.14 a0.18733 0.18733 -180 0 0 -0.18733 0.181189 L1.02
								 139.12 L0.17 139.12 a0.167369 0.167369 -180 0 0 -0.167369 0.167369 L0 139.56 a0.167369 0.167369
								 -180 0 0 0.167369 0.167369 L1.02 139.73 L1.02 140.62 L0.17 140.62 a0.167369 0.167369 -180 0 0 -0.167369
								 0.167369 L0 141.07 a0.167369 0.167369 -180 0 0 0.167369 0.168905 L1.02 141.24 L1.02 142.14 L0.17
								 142.14 a0.167369 0.167369 -180 0 0 -0.167369 0.167369 L0 142.58 a0.167369 0.167369 -180 0 0 0.167369
								 0.167369 L1.02 142.75 L1.02 143.54 a0.18733 0.18733 -180 0 0 0.185795 0.185795 L2.01 143.73 L2.01
								 144.58 a0.167369 0.167369 -180 0 0 0.167369 0.167369 L2.45 144.75 a0.167369 0.167369 -180 0 0 0.167369
								 -0.167369 L2.61 143.73 L3.51 143.73 L3.51 144.58 a0.167369 0.167369 -180 0 0 0.167369 0.167369 L3.95
								 144.75 a0.167369 0.167369 -180 0 0 0.167369 -0.167369 L4.12 143.73 L5.03 143.73 L5.03 144.58 a0.167369
								 0.167369 -180 0 0 0.167369 0.167369 L5.47 144.75 a0.167369 0.167369 -180 0 0 0.167369 -0.167369
								 L5.63 143.73 L6.43 143.73 a0.18733 0.18733 -180 0 0 0.179653 -0.185795 L6.61 142.74 L7.47 142.74
								 a0.167369 0.167369 -180 0 0 0.17044 -0.167369 L7.64 142.3 a0.167369 0.167369 -180 0 0 -0.167369
								 -0.167369 L6.61 142.14 L6.61 141.24 L7.47 141.24 a0.167369 0.167369 -180 0 0 0.17044 -0.168905 L7.64
								 140.8 a0.167369 0.167369 -180 0 0 -0.17044 -0.173511 L6.61 140.62 L6.61 139.73 L7.47 139.73 ZM5.98
								 143.11 L1.65 143.11 L1.65 138.77 L5.98 138.77 L5.98 143.11 Z" class="st7"/>
				</g>
			</g>
		</g>
		<g id="shape80-117" v:mID="80" v:groupContext="shape" transform="translate(184.397,-34.249)">
			<title>Sheet.80</title>
			<desc>Cloud IAP</desc>
			<v:textBlock v:margins="rect(4,4,4,4)" v:tabSpace="42.5197"/>
			<v:textRect cx="28.3465" cy="139.081" width="56.7" height="11.3386"/>
			<rect x="0" y="133.411" width="56.6929" height="11.3386" class="st18"/>
			<text x="8.63" y="141.78" class="st19" v:langID="1031"><v:paragraph v:horizAlign="1"/><v:tabList/>Cloud IAP</text>		</g>
		<g id="shape102-120" v:mID="102" v:groupContext="shape" transform="translate(266.601,-64.2963)">
			<title>Sheet.102</title>
			<path d="M0 144.75 L9.07 144.75" class="st20"/>
		</g>
		<g id="group99-126" transform="translate(133.479,-57.9865)" v:mID="99" v:groupContext="group">
			<title>Sheet.99</title>
			<g id="shape89-127" v:mID="89" v:groupContext="shape" transform="translate(2.24281,0)">
				<title>Sheet.89</title>
				<path d="M128.05 132.06 L0 132.06 L0 144.75 L128.05 144.75 A2.43906 6.34644 -180 1 0 128.05 132.06 Z" class="st22"/>
			</g>
			<g id="shape84-129" v:mID="84" v:groupContext="shape">
				<title>Sheet.84</title>
				<ellipse cx="2.24281" cy="138.404" rx="2.24281" ry="6.34645" class="st22"/>
			</g>
		</g>
		<g id="group9-131" transform="translate(195.452,-49.6857)" v:mID="9" v:groupContext="group">
			<title>Cloud IAP</title>
			<g id="shape10-132" v:mID="10" v:groupContext="shape">
				<title>Sheet.10</title>
				<path d="M32.21 128.6 L25.51 116.95 A2.94396 2.94396 -180 0 0 23 115.46 L9.6 115.46 A2.94142 2.94142 -180 0 0 7.09
							 116.95 L0.39 128.57 A2.92359 2.92359 -180 0 0 0.39 131.48 L7.09 143.2 A2.99744 2.99744 -180 0 0 9.6
							 144.75 L23 144.75 A2.98726 2.98726 -180 0 0 25.51 143.21 L32.21 131.56 A2.98726 2.98726 -180 0 0 32.21
							 128.6 Z" class="st6"/>
			</g>
			<g id="shape11-134" v:mID="11" v:groupContext="shape" transform="translate(7.18329,-0.00764004)">
				<title>Sheet.11</title>
				<path d="M23.82 133.64 L15.63 125.45 L13.43 126.11 L14.01 126.69 L13.53 126.98 L16.3 129.75 L14.81 130.13 L11.66
							 126.97 L7.59 126.22 L4.89 128.08 L4.65 132.28 L1.7 129.25 L0.13 129.43 L0 130.96 L13.78 144.75 L15.82
							 144.75 A2.98726 2.98726 -180 0 0 18.33 143.21 L23.82 133.64 Z" class="st15"/>
			</g>
			<g id="shape12-136" v:mID="12" v:groupContext="shape" transform="translate(12.4047,-10.9966)">
				<title>Sheet.12</title>
				<path d="M3.22 136.63 A4.55856 4.55856 -180 1 0 7.78 141.19 A4.55856 4.55856 -180 0 0 3.22 136.63 ZM3.22 144.75 A3.56535
							 3.56535 0 1 1 6.79 141.18 A3.56535 3.56535 0 0 1 3.22 144.75 Z" class="st7"/>
			</g>
			<g id="shape13-138" v:mID="13" v:groupContext="shape" transform="translate(13.6289,-12.5526)">
				<title>Sheet.13</title>
				<path d="M3.72 143.29 A1.48471 1.48471 -180 0 0 3.46 143.09 A2.75551 2.75551 -180 0 0 1.13 142.84 A2.31239 2.31239
							 -180 0 0 0.33 143.26 a0.802204 0.802204 -180 0 0 -0.331068 0.588283 C0 144.14 0 144.44 0 144.75 L4 144.75
							 C4 144.5 4 144.26 4 144.02 a0.860778 0.860778 -180 0 0 -0.287775 -0.730897 Z" class="st7"/>
			</g>
			<g id="shape14-140" v:mID="14" v:groupContext="shape" transform="translate(14.5839,-15.0713)">
				<title>Sheet.14</title>
				<path d="M1.04 144.75 A1.03395 1.03395 -180 1 0 -0 143.73 A1.03395 1.03395 -180 0 0 1.04 144.75 Z" class="st7"/>
			</g>
			<g id="shape15-142" v:mID="15" v:groupContext="shape" transform="translate(21.3887,-13.6069)">
				<title>Sheet.15</title>
				<path d="M2.22 142.56 L1.29 142.56 L1.98 143.26 L0 143.26 L0 144.06 L1.98 144.06 L1.29 144.75 L2.22 144.75 L3.31
							 143.66 L2.22 142.56 Z" class="st7"/>
			</g>
			<g id="shape16-144" v:mID="16" v:groupContext="shape" transform="translate(20.6119,-17.101)">
				<title>Sheet.16</title>
				<path d="M0.1 144.08 L0.67 144.65 L1.55 143.77 L1.55 144.75 L2.2 144.09 L2.2 142.55 L0.66 142.55 L0 143.2 L0.98 143.2
							 L0.1 144.08 Z" class="st7"/>
			</g>
			<g id="shape17-146" v:mID="17" v:groupContext="shape" transform="translate(20.6119,-9.99827)">
				<title>Sheet.17</title>
				<path d="M1.55 143.52 L0.67 142.65 L0.1 143.22 L0.98 144.09 L0 144.09 L0.66 144.75 L2.2 144.75 L2.2 143.2 L1.55 142.55
							 L1.55 143.52 Z" class="st7"/>
			</g>
			<g id="shape18-148" v:mID="18" v:groupContext="shape" transform="translate(7.17597,-13.7957)">
				<title>Sheet.18</title>
				<path d="M0.86 142.68 A1.20967 1.20967 -180 1 0 2.07 143.89 A1.20967 1.20967 -180 0 0 0.86 142.68 ZM0.86 144.56 a0.672323
							 0.672323 0 1 1 0.672323 -0.669777 a0.672323 0.672323 0 0 1 -0.672323 0.672323 L0.86 144.56 Z"
						class="st7"/>
			</g>
		</g>
		<g id="shape101-150" v:mID="101" v:groupContext="shape" transform="translate(127.42,-64.2963)">
			<title>Sheet.101</title>
			<path d="M0 144.75 L9.92 144.75" class="st23"/>
		</g>
		<g id="shape100-153" v:mID="100" v:groupContext="shape" transform="translate(35.2943,-50.6778)">
			<title>Instance.100</title>
			<desc>Local workstation</desc>
			<v:textBlock v:margins="rect(4,4,4,4)" v:tabSpace="42.5197" v:verticalAlign="0"/>
			<v:textRect cx="46.063" cy="131.095" width="92.13" height="27.3103"/>
			<g id="shadow100-154" v:groupContext="shadow" v:shadowOffsetX="0.172555" v:shadowOffsetY="-0.985" v:shadowType="1"
					transform="matrix(1,0,0,1,0.172555,0.985)" class="st11">
				<rect x="0" y="117.44" width="92.126" height="27.3103" class="st12"/>
			</g>
			<rect x="0" y="117.44" width="92.126" height="27.3103" class="st13"/>
			<text x="29.51" y="128.64" class="st2" v:langID="1031"><v:paragraph v:indentLeft="25.51"/><v:tabList/>Local<v:newlineChar/><tspan
						x="29.51" dy="1.2em" class="st24">workstation</tspan></text>		</g>
		<g id="group103-160" transform="translate(39.5463,-56.2042)" v:mID="103" v:groupContext="group">
			<v:custProps>
				<v:cp v:nameU="AssetNumber" v:lbl="Asset Number" v:prompt="" v:type="0" v:format="" v:sortKey="Asset"
						v:invis="false" v:ask="false" v:langID="1033" v:cal="0"/>
				<v:cp v:nameU="SerialNumber" v:lbl="Serial Number" v:prompt="" v:type="0" v:format="" v:sortKey="Asset"
						v:invis="false" v:ask="false" v:langID="1033" v:cal="0"/>
				<v:cp v:nameU="Location" v:lbl="Location" v:prompt="" v:type="0" v:format="" v:sortKey="Asset" v:invis="false"
						v:ask="false" v:langID="1033" v:cal="0"/>
				<v:cp v:nameU="Building" v:lbl="Building" v:prompt="" v:type="0" v:format="" v:sortKey="Asset" v:invis="false"
						v:ask="false" v:langID="1033" v:cal="0"/>
				<v:cp v:nameU="Room" v:lbl="Room" v:prompt="" v:type="0" v:format="" v:sortKey="Asset" v:invis="false"
						v:ask="false" v:langID="1033" v:cal="0"/>
				<v:cp v:nameU="Manufacturer" v:lbl="Manufacturer" v:prompt="" v:type="0" v:format="" v:sortKey="Equipment"
						v:invis="false" v:ask="false" v:langID="1033" v:cal="0"/>
				<v:cp v:nameU="ProductNumber" v:lbl="Product Number" v:prompt="" v:type="0" v:format="" v:sortKey="Equipment"
						v:invis="false" v:ask="false" v:langID="1033" v:cal="0"/>
				<v:cp v:nameU="PartNumber" v:lbl="Part Number" v:prompt="" v:type="0" v:format="" v:sortKey="Equipment"
						v:invis="false" v:ask="false" v:langID="1033" v:cal="0"/>
				<v:cp v:nameU="ProductDescription" v:lbl="Product Description" v:prompt="" v:type="0" v:format=""
						v:sortKey="Equipment" v:invis="false" v:ask="false" v:langID="1033" v:cal="0"/>
				<v:cp v:nameU="NetworkName" v:lbl="Network Name" v:prompt="" v:type="0" v:format="" v:sortKey="Network"
						v:invis="false" v:ask="false" v:langID="1033" v:cal="0"/>
				<v:cp v:nameU="IPAddress" v:lbl="IP Address" v:prompt="" v:type="0" v:format="" v:sortKey="Network" v:invis="false"
						v:ask="false" v:langID="1033" v:cal="0"/>
				<v:cp v:nameU="SubnetMask" v:lbl="Subnet Mask" v:prompt="" v:type="0" v:format="" v:sortKey="Network"
						v:invis="false" v:ask="false" v:langID="1033" v:cal="0"/>
				<v:cp v:nameU="AdminInterface" v:lbl="Administrative Interface" v:prompt="" v:type="0" v:format=""
						v:sortKey="Network" v:invis="false" v:ask="false" v:langID="1033" v:cal="0"/>
				<v:cp v:nameU="NumberofPorts" v:lbl="Number of Ports" v:prompt="" v:type="0" v:format="" v:sortKey="Network"
						v:invis="false" v:ask="false" v:langID="1033" v:cal="0"/>
				<v:cp v:nameU="CommunityString" v:lbl="Community String" v:prompt="" v:type="0" v:format="" v:sortKey="Network"
						v:invis="false" v:ask="false" v:langID="1033" v:cal="0"/>
				<v:cp v:nameU="NetworkDescription" v:lbl="Network Description" v:prompt="" v:type="0" v:format=""
						v:sortKey="Network" v:invis="false" v:ask="false" v:langID="1033" v:cal="0"/>
				<v:cp v:nameU="MACAddress" v:lbl="MAC Address" v:prompt="" v:type="0" v:format="" v:sortKey="Network"
						v:invis="false" v:ask="false" v:langID="1033" v:cal="0"/>
				<v:cp v:nameU="CPU" v:lbl="CPU" v:prompt="" v:type="0" v:format="" v:sortKey="Workstation" v:invis="false"
						v:ask="false" v:langID="1033" v:cal="0"/>
				<v:cp v:nameU="Memory" v:lbl="Memory" v:prompt="" v:type="0" v:format="" v:sortKey="Workstation" v:invis="false"
						v:ask="false" v:langID="1033" v:cal="0"/>
				<v:cp v:nameU="OperatingSystem" v:lbl="Operating System" v:prompt="" v:type="0" v:format="" v:sortKey="Workstation"
						v:invis="false" v:ask="false" v:langID="1033" v:cal="0"/>
				<v:cp v:nameU="HardDriveSize" v:lbl="Hard Drive Capacity" v:prompt="" v:type="0" v:format=""
						v:sortKey="Workstation" v:invis="false" v:ask="false" v:langID="1033" v:cal="0"/>
				<v:cp v:nameU="ShapeClass" v:lbl="ShapeClass" v:prompt="" v:type="0" v:format="" v:sortKey="" v:invis="true"
						v:ask="false" v:langID="1033" v:cal="0" v:val="VT4(Equipment)"/>
				<v:cp v:nameU="ShapeType" v:lbl="ShapeType" v:prompt="" v:type="0" v:format="" v:sortKey="" v:invis="true"
						v:ask="false" v:langID="1033" v:cal="0" v:val="VT4(Computer)"/>
				<v:cp v:nameU="SubShapeType" v:lbl="SubShapeType" v:prompt="" v:type="0" v:format="" v:sortKey="" v:invis="true"
						v:ask="false" v:langID="1033" v:cal="0" v:val="VT4(Laptop)"/>
			</v:custProps>
			<v:userDefs>
				<v:ud v:nameU="visVersion" v:prompt="" v:val="VT0(15):26"/>
				<v:ud v:nameU="ShapeClass" v:prompt="" v:val="VT0(5):26"/>
				<v:ud v:nameU="SolSH" v:prompt="" v:val="VT15({BF0433D9-CD73-4EB5-8390-8653BE590246}):41"/>
				<v:ud v:nameU="visLegendShape" v:prompt="" v:val="VT0(2):26"/>
			</v:userDefs>
			<title>Laptop</title>
			<g id="shape104-161" v:mID="104" v:groupContext="shape" transform="translate(0,-1.50528)">
				<title>Sheet.104</title>
				<path d="M0 144.75 L18.43 144.75 L18.43 143.05 L16.85 140.69 L1.49 140.69 L0 143.05 L0 144.75 ZM16.9 140.31 L16.9
							 132.86 C16.9 132.11 16.21 131.5 15.36 131.5 L3.03 131.5 C2.17 131.5 1.48 132.11 1.48 132.86 L1.48 140.31
							 L16.9 140.31 Z" class="st25"/>
			</g>
			<g id="shape105-163" v:mID="105" v:groupContext="shape" transform="translate(1.81285,-3.40125)">
				<title>Sheet.105</title>
				<v:userDefs>
					<v:ud v:nameU="SurroundingRegionColor" v:prompt="" v:val="VT5(1)"/>
					<v:ud v:nameU="SurroundingRegionColor" v:prompt="" v:val="VT5(#bfbfbf)"/>
				</v:userDefs>
				<path d="M0.74 143.58 L0 144.75 L14.77 144.75 L14.02 143.58 L0.74 143.58 Z" class="st16"/>
			</g>
			<g id="shape106-166" v:mID="106" v:groupContext="shape" transform="translate(2.97072,-7.36552)">
				<title>Sheet.106</title>
				<v:userDefs>
					<v:ud v:nameU="SurroundingRegionColor" v:prompt="" v:val="VT5(1)"/>
					<v:ud v:nameU="SurroundingRegionColor" v:prompt="" v:val="VT5(#bfbfbf)"/>
				</v:userDefs>
				<rect x="0" y="138.636" width="12.4839" height="6.11403" class="st26"/>
			</g>
		</g>
	</g>
</svg>
